<svg viewBox="0 0 560 520" xmlns="http://www.w3.org/2000/svg" role="img" aria-label="Illustration of connection and calm">
  <defs>
    <radialGradient id="glow" cx="50%" cy="45%" r="60%">
      <stop offset="0%" stop-color="#FBBF4E" stop-opacity="0.35" />
      <stop offset="100%" stop-color="#FBBF4E" stop-opacity="0" />
    </radialGradient>
    <linearGradient id="moonGrad" x1="0" y1="0" x2="1" y2="1">
      <stop offset="0%" stop-color="#FDE68A" />
      <stop offset="100%" stop-color="#F59E0B" />
    </linearGradient>
    <linearGradient id="lotusGrad1" x1="0" y1="0" x2="0" y2="1">
      <stop offset="0%" stop-color="#F3EEFC" />
      <stop offset="100%" stop-color="#C9A9EF" />
    </linearGradient>
    <linearGradient id="lotusGrad2" x1="0" y1="0" x2="0" y2="1">
      <stop offset="0%" stop-color="#FBBF4E" />
      <stop offset="100%" stop-color="#F59E0B" />
    </linearGradient>
  </defs>

  <circle cx="280" cy="230" r="220" fill="url(#glow)" />

  <g opacity="0.8">
    <circle cx="70" cy="90" r="2" fill="#FDE68A" className="twinkle" />
    <circle cx="120" cy="150" r="1.6" fill="#FDE68A" />
    <circle cx="460" cy="80" r="2" fill="#FDE68A" />
    <circle cx="500" cy="160" r="1.6" fill="#FDE68A" />
    <circle cx="60" cy="300" r="1.8" fill="#FDE68A" />
    <circle cx="490" cy="330" r="2" fill="#FDE68A" />
    <circle cx="40" cy="220" r="1.4" fill="#FDE68A" />
    <circle cx="520" cy="240" r="1.4" fill="#FDE68A" />
  </g>

  <circle cx="440" cy="95" r="34" fill="url(#moonGrad)" opacity="0.9" />
  <circle cx="452" cy="84" r="30" fill="#3B0764" opacity="0.55" />

  <g transform="translate(280,300)">
    <ellipse cx="0" cy="90" rx="150" ry="14" fill="#7E22CE" opacity="0.08" />

    <path d="M0,0 C-40,-14 -58,-56 -34,-92 C-16,-58 -6,-26 0,0 Z" fill="url(#lotusGrad1)" />
    <path d="M0,0 C40,-14 58,-56 34,-92 C16,-58 6,-26 0,0 Z" fill="url(#lotusGrad2)" opacity="0.92" />
    <path d="M0,0 C-24,-8 -36,-40 -18,-62 C-8,-40 -4,-18 0,0 Z" fill="#EADCF6" opacity="0.95" />
    <path d="M0,0 C24,-8 36,-40 18,-62 C8,-40 4,-18 0,0 Z" fill="#FBBF4E" opacity="0.95" />
    <path d="M0,0 C-64,10 -90,-6 -84,-30 C-56,-30 -22,-14 0,0 Z" fill="#F3EEFC" opacity="0.9" />
    <path d="M0,0 C64,10 90,-6 84,-30 C56,-30 22,-14 0,0 Z" fill="#DDBCF5" opacity="0.9" />
  </g>

  <g stroke="#F59E0B" stroke-width="1.6" opacity="0.55">
    <line x1="90" y1="380" x2="150" y2="350" />
    <line x1="150" y1="350" x2="210" y2="390" />
    <line x1="410" y1="380" x2="360" y2="350" />
    <line x1="360" y1="350" x2="320" y2="400" />
  </g>
  <circle cx="90" cy="380" r="4" fill="#F3EEFC" stroke="#F59E0B" stroke-width="1.5" />
  <circle cx="150" cy="350" r="5" fill="#FBBF4E" />
  <circle cx="210" cy="390" r="4" fill="#F3EEFC" stroke="#F59E0B" stroke-width="1.5" />
  <circle cx="410" cy="380" r="4" fill="#F3EEFC" stroke="#F59E0B" stroke-width="1.5" />
  <circle cx="360" cy="350" r="5" fill="#FBBF4E" />
  <circle cx="320" cy="400" r="4" fill="#F3EEFC" stroke="#F59E0B" stroke-width="1.5" />

  <circle cx="280" cy="230" r="150" fill="none" stroke="#FBBF4E" stroke-opacity="0.25" stroke-width="1" stroke-dasharray="2 8" />
</svg>
